<?xml version="1.0" standalone="no"?>
<!DOCTYPE svg PUBLIC "-//W3C//DTD SVG 20010904//EN"
 "http://www.w3.org/TR/2001/REC-SVG-20010904/DTD/svg10.dtd">
<svg version="1.0" xmlns="http://www.w3.org/2000/svg"
 width="500.000000pt" height="500.000000pt" viewBox="0 0 500.000000 500.000000"
 preserveAspectRatio="xMidYMid meet">
<metadata>
Created by potrace 1.14, written by Peter Selinger 2001-2017
</metadata>
<g transform="translate(0.000000,500.000000) scale(0.100000,-0.100000)"
fill="#000000" stroke="none">
<path d="M2379 4243 c-1 -5 -3 -33 -5 -63 l-3 -56 62 1 62 0 0 -125 0 -125
-50 -1 c-27 -1 -55 0 -61 3 -7 2 -10 45 -10 119 1 67 -3 119 -9 123 -5 4 -32
7 -60 6 l-50 -1 -5 -124 -5 -125 -122 0 -123 0 -1 -40 c-1 -22 0 -50 1 -62 1
-23 0 -23 -124 -23 l-126 0 0 -59 c0 -38 4 -60 13 -63 10 -3 205 -3 230 1 5 0
8 11 7 24 -1 12 -2 39 -1 60 l1 37 500 0 500 0 0 -63 0 -62 123 0 122 0 5
-125 5 -124 45 -2 c25 0 52 -2 61 -2 14 -2 16 -25 15 -187 l-1 -186 -64 3 -65
3 0 120 -1 120 -50 2 c-27 1 -55 2 -62 2 -8 1 -11 17 -9 51 1 27 -1 55 -5 62
-4 6 -31 12 -61 12 l-53 1 0 -185 0 -185 25 -2 c14 0 42 -1 62 -2 l37 -1 -1
-60 c-1 -68 -7 -72 -83 -68 -39 3 -40 4 -43 43 -5 84 -6 85 -71 85 l-59 0 2
56 c1 41 -3 58 -14 63 -27 13 -221 6 -229 -8 -4 -6 -7 -34 -5 -62 l2 -49 -36
-1 c-124 -1 -203 0 -210 5 -5 3 -8 30 -7 60 1 41 -3 58 -16 70 -10 8 -20 12
-23 9 -3 -4 -6 1 -6 10 0 9 9 21 20 27 11 6 20 8 20 5 0 -3 10 -1 21 6 12 6
40 13 63 15 22 2 70 9 106 16 36 7 68 11 73 10 4 -1 7 3 7 10 0 6 3 8 7 5 5
-6 36 28 39 43 0 3 8 23 18 46 l17 41 74 -1 c41 -1 76 1 76 4 1 3 2 23 3 44 1
22 7 41 14 44 12 4 45 -22 37 -30 -2 -2 11 -4 30 -5 20 0 35 4 35 11 0 6 3 20
6 32 5 19 2 21 -45 18 -28 -1 -56 -6 -62 -10 -7 -4 -9 -3 -5 4 4 7 -14 10 -58
10 -35 -1 -68 2 -73 5 -8 5 -9 49 -4 115 1 8 24 12 81 12 50 0 80 4 80 11 0 5
-4 7 -10 4 -5 -3 -10 -1 -10 6 0 7 -3 9 -7 6 -3 -4 -15 0 -25 10 -10 9 -18 13
-18 8 0 -4 -6 -2 -14 4 -9 8 -16 8 -20 2 -4 -6 -28 2 -59 19 -68 37 -104 44
-111 22 -3 -9 -7 -61 -8 -115 -3 -112 -5 -116 -77 -109 l-49 4 0 -44 c-1 -89
4 -83 -61 -85 -72 -3 -70 -7 -68 135 2 116 -1 122 -65 117 -55 -4 -61 -11 -55
-66 3 -27 1 -51 -4 -55 -6 -3 -90 -7 -187 -8 l-177 -1 -3 -57 -3 -58 78 -1
c43 0 98 -1 123 -2 l45 -2 1 -60 c1 -33 -2 -62 -7 -65 -4 -3 -58 -5 -118 -3
-76 1 -113 -2 -118 -10 -4 -7 -7 -34 -8 -62 l0 -50 -175 -1 c-97 0 -181 -3
-188 -8 -8 -5 -12 -42 -12 -122 l0 -114 28 -1 c15 0 71 -1 125 -2 58 -1 97 -6
98 -12 0 -5 2 -33 3 -61 3 -71 10 -77 67 -72 53 5 51 7 51 -57 1 -53 1 -53
-62 -49 l-60 3 0 -64 0 -65 55 1 c31 1 59 -2 63 -5 4 -4 7 -61 7 -127 l1 -119
-31 -1 c-16 0 -43 -2 -60 -2 l-30 -2 0 -123 0 -122 -67 0 -66 0 2 -52 c1 -29
4 -58 8 -63 4 -6 32 -10 62 -10 l56 1 0 -63 0 -63 -63 0 -63 0 1 63 1 63 -61
0 -60 -1 -3 60 c-1 33 -3 85 -5 115 -1 30 -5 60 -9 66 -4 7 -28 10 -57 7 -56
-4 -59 1 -56 80 3 52 5 51 -78 48 l-48 -3 2 213 c1 198 3 211 18 191 14 -18
28 -21 101 -22 142 -3 126 -18 126 123 l-1 122 -54 -2 c-30 -1 -57 -7 -61 -12
-3 -6 -5 -33 -4 -61 1 -32 -2 -50 -9 -51 -7 -1 -27 -2 -45 -4 -19 -1 -40 -12
-52 -25 l-20 -23 0 151 c0 115 3 152 13 153 6 0 35 1 62 2 l50 2 -1 122 0 122
60 3 c46 2 61 7 62 18 1 8 2 36 3 61 l1 47 53 -3 c28 -1 57 0 63 2 6 2 10 29
9 63 -1 48 2 60 14 61 9 0 37 1 64 1 l47 0 0 62 0 62 -107 -1 c-148 -2 -143
-4 -143 66 l0 59 -125 0 -125 0 0 -63 0 -64 -55 2 c-30 1 -58 -1 -63 -4 -10
-8 -10 -234 0 -242 5 -3 33 -5 63 -4 l55 2 0 -188 0 -189 -63 0 -62 0 0 -122
0 -123 -125 -5 -125 -5 0 -52 c0 -28 -4 -55 -8 -59 -4 -5 -31 -9 -60 -9 l-52
-1 0 -124 0 -125 50 -1 c28 -1 55 -2 60 -3 6 0 11 -26 10 -58 l0 -58 125 -5
125 -5 1 -115 c1 -63 2 -118 3 -122 0 -5 28 -8 61 -8 l60 0 0 -125 0 -125 63
0 63 0 -1 -122 0 -123 -62 -3 -63 -3 0 -124 0 -125 60 0 c33 0 61 -3 61 -7 1
-5 3 -30 4 -58 2 -27 3 -52 4 -55 2 -9 229 -5 238 3 4 5 8 32 8 60 l0 52 187
3 187 2 3 -62 3 -63 120 0 120 0 5 -125 5 -125 58 0 c62 1 59 5 61 -75 l1 -45
126 -3 127 -3 -3 50 c-3 67 4 76 67 76 l53 0 3 120 c1 65 7 122 12 125 6 3 60
6 121 5 60 -1 112 2 115 7 3 4 5 32 5 63 l1 55 183 0 c137 0 184 -3 187 -12 3
-7 4 -34 3 -60 -1 -27 1 -49 4 -49 22 -4 233 -4 239 1 5 3 8 30 8 60 l-1 55
63 3 62 3 0 125 0 125 -62 -3 -63 -3 0 -55 c1 -30 -3 -58 -7 -61 -5 -3 -32 -5
-61 -5 l-52 1 -2 62 -2 62 62 3 62 3 0 120 0 120 63 3 62 3 0 124 c0 69 3 124
8 124 4 -1 32 -1 62 0 l55 1 0 123 0 122 125 5 125 5 1 45 c2 82 -2 77 64 75
l61 -2 -3 126 -3 125 -61 1 -61 2 2 -64 1 -64 -125 3 -126 3 0 60 0 60 115 0
c63 0 120 3 125 7 6 3 10 30 10 60 l-1 53 -122 3 c-87 2 -122 6 -123 15 -1 7
-2 62 -3 122 l-1 110 -60 5 -60 5 -3 186 -2 186 55 -2 c30 -1 58 1 63 4 12 9
9 241 -3 242 -5 1 -32 2 -60 3 l-50 1 -3 63 -3 62 -124 0 -125 0 0 -63 0 -62
-125 0 -125 -1 0 63 0 63 -125 0 -125 0 0 60 c0 33 -4 61 -10 61 -5 1 -61 2
-122 3 l-113 1 -5 125 -5 125 -57 -1 c-63 -1 -59 -5 -63 66 -1 19 -3 41 -3 48
-2 9 -33 12 -122 12 -66 0 -120 -3 -121 -7z m-877 -676 c0 -32 -2 -60 -4 -62
-8 -8 -108 -8 -116 -1 -10 10 -11 99 -1 111 4 6 34 11 65 10 l57 0 -1 -58z
m2119 54 c1 -3 2 -32 3 -63 l2 -56 -54 -4 c-30 -2 -59 0 -65 4 -10 6 -14 99
-4 115 6 10 116 14 118 4z m-123 -808 c2 -169 1 -183 -15 -184 -10 -1 -34 -2
-53 -3 -19 -2 -40 1 -46 5 -5 5 -9 33 -9 64 1 33 -3 56 -9 56 -6 1 -31 2 -55
3 -34 1 -45 5 -47 18 -1 10 2 20 6 23 5 3 4 20 -1 37 -5 17 -6 34 -4 37 3 3
29 5 58 5 l52 1 1 55 c1 30 2 59 3 63 0 4 27 7 59 5 l57 -3 3 -182z m-1534
134 c-3 -7 2 -3 12 8 13 16 16 17 11 3 -3 -10 -2 -20 3 -23 6 -4 10 -11 10
-16 0 -6 -6 -7 -12 -3 -10 6 -10 5 -1 -7 18 -22 3 -34 -44 -34 -47 0 -77 22
-68 48 7 17 59 39 69 30 3 -4 6 -1 6 6 0 7 5 9 10 6 6 -4 8 -12 4 -18z m285
-124 c-1 -27 -1 -54 0 -60 1 -10 34 -13 129 -13 l127 0 -2 -122 c-1 -68 -2
-125 -2 -128 -1 -3 -56 -4 -123 -3 l-123 2 -3 121 c-2 112 -4 124 -25 141 -12
10 -17 18 -12 19 6 0 9 20 8 45 -1 33 3 45 13 45 11 0 14 -12 13 -47z m-1124
-258 l0 -60 -125 0 -125 0 -1 61 -1 61 126 -1 125 -1 1 -60z m1789 38 c12 -12
66 -11 66 1 0 6 5 4 10 -4 5 -8 10 -34 10 -58 l0 -43 -62 3 -63 3 -1 35 c-1
53 19 84 40 63z m384 -47 c2 -25 0 -28 -22 -24 -14 3 -27 0 -30 -6 -2 -6 -5
-3 -5 7 -1 9 -6 17 -12 17 -5 0 -7 5 -4 10 5 8 11 8 20 0 9 -8 15 -8 20 0 4 6
1 9 -6 8 -6 -2 -14 2 -16 9 -3 8 5 12 24 10 24 -2 29 -7 31 -31z m190 -185 c7
-1 11 -12 10 -30 -2 -27 -5 -29 -35 -28 -18 1 -33 5 -33 8 0 4 -7 9 -15 13
-13 5 -14 2 -4 -17 11 -19 10 -20 -3 -10 -8 7 -17 10 -20 7 -3 -2 -8 7 -11 21
-7 37 9 42 111 36z m-298 -121 c0 10 4 9 16 -1 14 -12 14 -14 -2 -26 -15 -11
-13 -17 7 -15 3 0 5 -9 5 -21 0 -17 -6 -22 -26 -22 -20 0 -26 5 -25 23 0 12 7
27 15 32 13 8 8 14 -11 12 -3 -1 -6 6 -6 13 0 11 4 12 14 4 10 -9 13 -8 13 1z
m-74 -132 c3 -4 7 -32 9 -63 l2 -56 -61 3 -61 3 -2 60 -2 61 54 -1 c29 0 57
-3 61 -7z m-609 -122 l118 -1 1 -50 c1 -27 2 -55 3 -61 0 -5 22 -10 49 -9 70
2 72 0 72 -66 l0 -59 -125 0 -124 0 -3 62 -3 63 -57 0 c-33 1 -59 -4 -59 -10
-1 -5 -3 -57 -4 -115 -2 -58 -3 -110 -4 -116 -1 -12 -106 -13 -118 -1 -3 4 0
26 7 49 19 60 20 107 4 147 -18 43 -9 49 57 45 27 -2 49 0 50 4 7 46 6 113 -2
117 -5 4 -9 11 -9 17 0 7 6 6 15 -2 10 -8 55 -13 132 -14z m493 -60 l0 -64 60
2 c33 2 61 0 61 -3 1 -3 2 -32 3 -63 l2 -58 -63 0 -62 0 -3 63 -3 62 -52 1
c-29 1 -57 2 -62 3 -6 1 -8 108 -2 118 0 1 28 2 61 2 l60 0 0 -63z m-888 -65
c10 -1 6 -51 -5 -51 -4 0 -3 -9 3 -21 19 -35 6 -46 -52 -45 l-53 1 -3 60 -3
60 53 -1 c29 -1 56 -3 60 -3z m-114 -183 l-3 -63 -60 0 -60 1 0 54 c-1 30 1
58 3 63 2 4 30 7 63 7 l61 0 -4 -62z m-498 -251 l0 -63 -54 1 c-30 0 -58 4
-63 8 -4 5 -8 33 -8 63 l-1 54 63 0 63 0 0 -63z m1121 -317 c1 -3 2 -59 3
-126 l2 -121 -61 2 -60 1 -3 125 -3 125 61 -1 c33 0 61 -2 61 -5z"/>
<path d="M3186 2192 c-3 -5 1 -9 9 -9 8 0 12 4 9 9 -3 4 -7 8 -9 8 -2 0 -6 -4
-9 -8z"/>
<path d="M1768 3372 c-13 -2 -16 -15 -15 -60 l2 -57 59 0 59 0 0 45 c-1 79 1
76 -46 75 -24 0 -50 -1 -59 -3z"/>
<path d="M1629 2729 c-1 -10 -2 -38 -3 -61 l-1 -43 -60 0 -60 0 0 -60 0 -60
61 -3 60 -3 -1 48 c-2 79 0 82 55 79 27 -2 54 0 60 4 6 4 12 31 13 61 l2 54
-62 2 c-56 1 -63 -1 -64 -18z"/>
<path d="M1269 2485 c-3 -22 5 -49 16 -57 6 -5 4 -8 -5 -8 -12 0 -12 -2 -2 -9
7 -4 14 -22 14 -40 1 -22 5 -30 14 -27 8 3 11 0 7 -10 -3 -8 4 -23 16 -33 11
-10 18 -21 14 -25 -3 -3 -1 -6 5 -6 20 0 25 23 26 124 l0 101 -52 0 c-29 0
-53 -4 -53 -10z"/>
<path d="M1501 2319 c1 -31 7 -53 15 -56 18 -7 54 15 54 32 0 8 5 15 11 15 5
0 8 4 5 9 -4 5 -1 11 6 13 6 2 12 11 14 20 1 12 -10 15 -52 17 l-54 1 1 -51z"/>
<path d="M1530 1983 c0 -10 7 -14 20 -10 11 3 20 0 20 -5 0 -7 5 -6 13 1 8 6
17 9 21 6 3 -3 2 0 -3 6 -15 18 -71 19 -71 2z"/>
</g>
</svg>
