<?xml version="1.0" standalone="no"?>
<!DOCTYPE svg PUBLIC "-//W3C//DTD SVG 20010904//EN"
 "http://www.w3.org/TR/2001/REC-SVG-20010904/DTD/svg10.dtd">
<svg version="1.0" xmlns="http://www.w3.org/2000/svg"
 width="512.000000pt" height="512.000000pt" viewBox="0 0 512.000000 512.000000"
 preserveAspectRatio="xMidYMid meet">
<metadata>
Created by potrace 1.14, written by Peter Selinger 2001-2017
</metadata>
<g transform="translate(0.000000,512.000000) scale(0.100000,-0.100000)"
fill="#000000" stroke="none">
<path d="M3262 4678 c-24 -13 -59 -41 -78 -63 -54 -62 -154 -192 -154 -200 0
-4 -11 -16 -25 -27 -14 -11 -25 -24 -25 -30 0 -6 -7 -18 -15 -27 -8 -9 -41
-48 -74 -88 -82 -96 -93 -100 -285 -82 -83 8 -259 14 -391 14 -237 0 -337 -9
-430 -40 -22 -7 -65 -18 -95 -25 -30 -7 -65 -18 -77 -26 -12 -8 -27 -14 -33
-14 -6 0 -49 -18 -95 -40 -46 -22 -88 -40 -93 -40 -6 0 -12 -7 -16 -15 -3 -8
-12 -15 -19 -15 -8 0 -33 -13 -55 -30 -23 -16 -45 -30 -49 -30 -6 0 -112 -77
-123 -89 -3 -4 -21 -18 -40 -33 -91 -68 -310 -305 -310 -335 0 -7 -4 -13 -10
-13 -5 0 -16 -13 -25 -29 -8 -16 -21 -35 -29 -43 -8 -8 -23 -36 -35 -61 -12
-26 -26 -47 -31 -47 -6 0 -10 -9 -10 -19 0 -11 -4 -23 -10 -26 -5 -3 -10 -14
-10 -24 0 -10 -9 -28 -20 -41 -11 -13 -20 -28 -20 -34 0 -6 -11 -38 -24 -71
-32 -79 -75 -219 -85 -281 -5 -27 -14 -83 -20 -124 -6 -41 -16 -103 -21 -136
-6 -34 -10 -105 -10 -158 0 -103 8 -172 50 -414 15 -89 79 -271 132 -377 69
-139 95 -187 105 -194 4 -3 17 -22 27 -41 11 -19 25 -39 33 -43 7 -4 13 -13
13 -19 0 -15 96 -130 179 -215 94 -95 280 -253 299 -253 5 0 15 -7 23 -16 7
-8 31 -25 53 -36 23 -11 43 -24 46 -28 3 -4 26 -17 52 -29 26 -11 49 -25 52
-29 3 -5 24 -15 48 -22 24 -7 50 -19 58 -25 8 -6 53 -25 100 -42 75 -27 124
-42 235 -73 36 -10 169 -35 280 -52 227 -34 541 -2 785 82 52 17 111 41 132
51 20 10 44 19 53 19 8 0 15 4 15 10 0 5 17 16 38 25 20 8 44 19 52 25 8 5 33
19 55 31 22 12 42 25 45 28 3 4 23 18 45 31 22 13 46 30 53 37 8 7 22 18 32
23 23 12 87 67 168 145 60 58 222 248 222 262 0 3 7 15 16 25 17 18 44 65 87
150 13 26 29 53 34 60 6 7 18 33 26 58 9 25 25 64 36 87 12 23 21 48 21 55 1
7 8 31 16 53 74 193 121 545 98 719 -6 42 -9 46 -34 46 -15 0 -33 -7 -40 -15
-18 -21 -57 -19 -78 6 -9 11 -37 31 -62 45 -63 35 -107 107 -131 214 -23 105
-23 128 -3 221 15 68 21 79 75 132 40 40 65 57 83 57 23 0 26 4 26 35 0 19 -5
45 -11 58 -12 27 3 67 44 110 20 22 59 69 88 105 6 7 42 52 80 100 38 48 78
96 89 108 44 48 70 115 70 180 0 35 -4 65 -9 68 -5 4 -17 32 -27 64 -9 31 -22
62 -28 67 -6 6 -16 21 -22 35 -6 14 -28 45 -48 69 -21 24 -44 57 -52 73 -17
33 -48 42 -118 35 -55 -5 -148 -53 -174 -89 -7 -10 -19 -18 -27 -18 -8 0 -19
-9 -25 -20 -12 -23 -45 -27 -57 -7 -4 8 -23 22 -40 32 -38 22 -38 22 -15 55
39 57 138 140 197 164 50 21 55 43 18 75 -50 43 -66 55 -108 81 -22 13 -42 27
-45 30 -22 26 -215 120 -295 144 -33 9 -70 22 -83 27 -45 18 -163 11 -210 -13z
m-304 -1085 c20 -16 39 -30 42 -33 3 -4 21 -16 41 -28 33 -20 109 -101 109
-116 0 -13 -77 -5 -100 10 -47 32 -120 108 -120 126 0 10 -7 21 -15 24 -17 7
-21 44 -4 44 6 0 27 -12 47 -27z m-1104 -639 c4 -10 24 -14 65 -14 33 0 63 -5
67 -11 4 -6 20 -8 38 -5 25 5 37 2 52 -15 10 -11 37 -29 59 -39 27 -13 44 -29
54 -52 7 -18 21 -39 29 -45 14 -12 14 -13 -1 -13 -25 0 -22 -47 3 -60 27 -14
25 -29 -4 -40 -30 -11 -42 -28 -28 -42 12 -12 -8 -58 -26 -58 -7 0 -17 -11
-22 -25 -5 -14 -16 -25 -25 -25 -9 0 -20 -11 -24 -24 -11 -26 -30 -36 -71 -36
-16 0 -32 -4 -35 -10 -14 -23 -72 -39 -130 -36 -101 5 -105 6 -105 20 0 17
-22 26 -66 26 -27 0 -36 5 -43 23 -5 12 -21 29 -35 36 -16 9 -26 23 -26 36 0
12 -11 32 -24 44 -21 20 -24 31 -24 97 0 41 4 77 9 80 5 3 9 13 9 24 0 10 6
20 14 23 8 3 16 16 18 29 2 15 16 29 41 41 20 10 37 23 37 28 0 5 9 9 19 9 11
0 23 5 26 10 3 6 17 10 31 10 14 0 27 6 30 14 3 8 20 13 44 13 24 0 41 -5 44
-13z m376 -324 c0 -11 -7 -20 -15 -20 -8 0 -15 9 -15 20 0 11 7 20 15 20 8 0
15 -9 15 -20z"/>
<path d="M4601 3946 c-1 -37 2 -47 10 -39 8 8 8 22 1 50 l-10 38 -1 -49z"/>
<path d="M4601 3723 c1 -95 4 -146 9 -128 12 46 12 285 0 285 -6 0 -10 -58 -9
-157z"/>
<path d="M4583 3465 c0 -27 2 -38 4 -22 2 15 2 37 0 50 -2 12 -4 0 -4 -28z"/>
<path d="M4553 3285 c0 -22 2 -30 4 -17 2 12 2 30 0 40 -3 9 -5 -1 -4 -23z"/>
<path d="M4520 3175 c0 -8 5 -15 10 -15 6 0 10 7 10 15 0 8 -4 15 -10 15 -5 0
-10 -7 -10 -15z"/>
</g>
</svg>
